<svg xmlns="http://www.w3.org/2000/svg" viewBox="0 0 597.57 329.51"><defs><style>.cls-1{fill:#646467;}.cls-2{fill:#131314;}.cls-3{fill:#fff;}.cls-4{fill:#3f393a;}.cls-5{fill:#d4d4d3;}</style></defs><title>Asset 1</title><g id="Layer_2" data-name="Layer 2"><g id="Vrstva_1" data-name="Vrstva 1"><path class="cls-1" d="M412.93,208.47a8.09,8.09,0,0,0-3-6L398,192.91a8.06,8.06,0,0,0-6.27-1.69l-29.56,4.5a8.08,8.08,0,0,0-6.32,5.06l-3.72-1.95a8.12,8.12,0,0,0-5-.82l-44.46,6.78a6.17,6.17,0,0,0-.77.16l-23,3.51a8.05,8.05,0,0,0-6.25,4.9l-2.63,6.39-2.49-2.2-.39-1a8.07,8.07,0,0,0-8.72-5L222.81,217a6.57,6.57,0,0,0-.77.16l-36,5.48a30.81,30.81,0,0,0-25.55,28.58l-1.67,44.7A24.51,24.51,0,0,0,163,310.81a14.09,14.09,0,0,0,2.23,2.79,116.82,116.82,0,0,0,9.6,10.61,21.42,21.42,0,0,0,14.3,5.3,23.64,23.64,0,0,0,3.54-.27l32.54-4.55a28.07,28.07,0,0,0,16.53-9.18,28.94,28.94,0,0,0,5.76-9.72,8,8,0,0,0,1.55,2.07l8.63,8.32a8.06,8.06,0,0,0,6.71,2.18l27.35-3.79a8.07,8.07,0,0,0,7-7.73l.35-10.66.1-5.17c1.43,3.06,11.66,16.3,11.66,16.3a8.09,8.09,0,0,0,7.37,2.75l29.53-4.75a8.16,8.16,0,0,0,1.65-.43,8.53,8.53,0,0,0,2.42,0l23.62-3.67a8,8,0,0,0,2.39-.76,8.16,8.16,0,0,0,2.15,0l29-4.41a8.07,8.07,0,0,0,6.85-8.26Z"/><path class="cls-1" d="M597.56,54.69c.29-11.13-3.87-21-11.72-27.85L565.52,9.18l-.9-.78c-7.83-6.79-18.24-9.61-29.31-7.93l-57,8.65a47.52,47.52,0,0,0-28.11,15.63,48.92,48.92,0,0,0-8.83,14.06l-1.16,2.84-2.32-2c-9.58-8.3-11.43-9.9-11.82-10.25h0c-7.83-6.78-18.26-9.59-29.33-7.91L6.86,80.56A8.07,8.07,0,0,0,2.8,94.66l18.57,16L18.86,242.22a8,8,0,0,0,2.81,6.28l21.38,18.37a8.12,8.12,0,0,0,6.48,1.86l40.72-6.19a8.05,8.05,0,0,0,6.86-7.82l.53-26.66,3.92,6.24a8.1,8.1,0,0,0,1.58,1.83l21.35,18.36a8,8,0,0,0,6.48,1.86l40.71-6.18a8.08,8.08,0,0,0,6.86-7.73l.14-4.61L187,245a8.07,8.07,0,0,0,6.49,1.87l111.91-17a8.09,8.09,0,0,0,6.86-7.72l.15-4.6,8.27,7.14a8.09,8.09,0,0,0,6.49,1.87l40.68-6.18,40.9-6.21,47-7a8.06,8.06,0,0,0,6-11.65L452.42,180l16.36,12.73c7.81,6.75,18.2,9.55,29.27,7.87L554.94,192A47.58,47.58,0,0,0,583,176.36a46.56,46.56,0,0,0,12.16-29.53"/><polygon class="cls-2" points="68.46 195.65 68.44 195.63 109.22 189.45 108.4 230 129.76 248.37 170.47 242.19 173.75 85.13 152.36 66.68 111.56 72.86 110.3 135.27 91.35 138.14 92.16 97.5 70.75 79.05 8.07 88.55 29.51 107.01 26.93 242.38 48.31 260.74 89.04 254.56 89.84 214.04 68.46 195.66 68.46 195.65"/><polygon class="cls-3" points="109.65 167.75 108.4 230 149.13 223.82 152.36 66.68 111.56 72.86 110.3 135.27 69.52 141.45 70.75 79.05 8.07 88.55 29.51 107.01 26.93 242.38 67.67 236.19 68.46 195.65 47.05 177.24 109.65 167.75"/><polygon class="cls-2" points="170.94 220.51 192.27 238.88 304.19 221.87 305.1 181.36 283.8 162.97 283.78 162.96 284.5 130.5 263.18 112.08 306.81 105.44 307.73 64.82 286.39 46.37 152.37 66.67 173.76 85.14 170.94 220.51"/><polygon class="cls-3" points="170.94 220.51 282.89 203.51 283.8 162.97 212.52 173.78 191.16 155.37 262.47 144.56 263.18 112.08 213.67 119.59 192.31 101.14 285.48 87.01 286.39 46.37 152.37 66.67 173.76 85.14 170.94 220.51"/><path class="cls-2" d="M430.43,159.2c4.27-2.22,5.75-3.83,9.24-7.74a38.47,38.47,0,0,0,10.08-24.38L451,75.48c.2-8.31-2.78-16.15-9-21.53S420.74,35.5,420.74,35.5c-6.22-5.39-14.49-7.3-22.83-6L286.39,46.36l21.34,18.48L304.67,200.2,326,218.57l40.68-6.18.44-18.82-21.29-18.39,31.58-4.8,8.91,17.42,21.25,18.37,45.9-7ZM347.54,99.26l41-6.2L388,114.81l-19.15,2.91v0Z"/><path class="cls-3" d="M397.91,29.46,286.39,46.36l21.34,18.48L304.67,200.2l40.7-6.18.43-18.82-21.3-18.41,42.6-6.47,19.18,37.48,40.45-6.14-20.12-39.41a41.11,41.11,0,0,0,11.8-9.19,38.5,38.5,0,0,0,10.08-24.39L429.73,57c.2-8.32-2.78-16.15-9-21.54S406.25,28.2,397.91,29.46ZM388,114.81,347.05,121l.5-21.75L326.23,80.83,389,71.32Z"/><path class="cls-2" d="M559.32,14.49c-6.21-5.38-14.46-7.3-22.81-6l-57,8.64a39.54,39.54,0,0,0-23.29,13,38.61,38.61,0,0,0-10.11,24.43l-2.23,92.2c-.2,8.3,2.77,16.11,9,21.48l21.24,18.37c6.2,5.37,14.44,7.26,22.77,6l56.9-8.64A39.57,39.57,0,0,0,577,171a38.46,38.46,0,0,0,10.11-24.35l2.41-92.15c.21-8.31-2.75-16.15-8.93-21.53ZM526.79,72.08l-1.37,54.21-18.9,2.87.81-32.47L486.08,78.27v0Z"/><path class="cls-3" d="M536.51,8.46l-57,8.64a39.54,39.54,0,0,0-23.29,13,38.61,38.61,0,0,0-10.11,24.43l-2.23,92.2c-.2,8.3,2.77,16.11,9,21.48s14.46,7.26,22.79,6l56.91-8.65a39.6,39.6,0,0,0,23.26-13,38.58,38.58,0,0,0,10.1-24.38L568.26,36c.22-8.32-2.75-16.16-8.94-21.55S544.86,7.19,536.51,8.46ZM525.42,126.29l-40.68,6.18,1.34-54.2L464.81,59.82l62.53-9.48Z"/><path class="cls-4" d="M149.36,70.1l-3.12,151.19-34.83,5.29,1.18-58.77.07-3.49-3.45.53-62.6,9.48-6.33,1,4.85,4.17L65.5,197l-.72,36.69L29.93,239l2.52-131.88,0-1.38-1-.9-16.6-14.3,52.91-8-1.16,58.92-.07,3.49,3.45-.53,40.78-6.18,2.44-.37,0-2.47,1.21-59.94,34.92-5.29m3-3.42-40.8,6.18-1.26,62.41-40.78,6.18,1.23-62.4L8.07,88.54,29.51,107,26.93,242.38l40.74-6.19.79-40.54L47.05,177.24l62.6-9.49L108.4,230l40.73-6.18,3.23-157.14Z"/><path class="cls-4" d="M283.38,49.79l-.78,34.69L191.87,98.24l-6.31,1,4.83,4.17,21.36,18.45,1,.88,1.33-.2,46.05-7L259.58,142l-68.86,10.44-6.31.95,4.83,4.17L210.6,176l1,.88,1.34-.2,67.82-10.3L280,201,173.94,217.08,176.7,85.2l0-1.38-1-.9-16.56-14.3L283.38,49.79m3-3.43-134,20.32,21.39,18.46-2.82,135.37,112-17,.9-40.54-71.27,10.81-21.36-18.41,71.31-10.81.7-32.48-49.5,7.51-21.36-18.45L285.48,87l.91-40.65Z"/><path class="cls-4" d="M402.82,32a24,24,0,0,1,16,5.69c5.33,4.63,8.17,11.47,8,19.25l-1.24,51.63a35.52,35.52,0,0,1-9.34,22.51,38.51,38.51,0,0,1-11,8.54L402.67,141l1.32,2.6,18.28,35.78-34.34,5.21L369.72,149l-1-1.88-2.1.32-42.6,6.46-6.3,1,4.82,4.17,20.25,17.5-.34,15-34.8,5.29,3-131.87,0-1.38-1-.9L293.12,48.31,398.35,32.37a29.54,29.54,0,0,1,4.47-.34M344.58,100.6,344.11,121l-.08,3.49,3.46-.52,40.95-6.21,2.43-.37.06-2.47,1-43.49.08-3.5-3.46.52-62.79,9.52-6.3.95,4.82,4.17,20.27,17.55m58.24-71.51a32.66,32.66,0,0,0-4.91.37L286.39,46.36l21.34,18.48L304.67,200.2l40.7-6.18.43-18.82-21.3-18.41,42.6-6.47,19.18,37.48,40.45-6.14-20.12-39.41a41.11,41.11,0,0,0,11.8-9.19,38.5,38.5,0,0,0,10.08-24.39L429.73,57c.2-8.32-2.78-16.15-9-21.54a27,27,0,0,0-17.92-6.41ZM347.05,121l.5-21.75L326.23,80.83,389,71.32l-1,43.49L347.05,121Z"/><path class="cls-4" d="M541.42,11a24,24,0,0,1,16,5.69c5.32,4.63,8.14,11.47,7.94,19.25L563,128.16a35.55,35.55,0,0,1-9.36,22.49,36.55,36.55,0,0,1-21.51,12l-56.91,8.65a31.17,31.17,0,0,1-4.49.34A23.92,23.92,0,0,1,454.75,166c-5.33-4.61-8.16-11.42-8-19.19L449,54.64a35.54,35.54,0,0,1,9.36-22.56A36.55,36.55,0,0,1,479.92,20l57-8.64a29.54,29.54,0,0,1,4.47-.34M483.11,79.58l-1.3,52.81-.09,3.5,3.46-.52,40.68-6.18,2.43-.36.07-2.46,1.91-75.95.09-3.51-3.46.53-62.53,9.48-6.3.95L462.88,62l20.23,17.54m58.31-71.5a32.78,32.78,0,0,0-4.91.38l-57,8.64a39.54,39.54,0,0,0-23.29,13,38.61,38.61,0,0,0-10.11,24.43l-2.23,92.2c-.2,8.3,2.77,16.11,9,21.48a27,27,0,0,0,17.86,6.38,32.94,32.94,0,0,0,4.93-.38l56.91-8.65a39.6,39.6,0,0,0,23.26-13,38.58,38.58,0,0,0,10.1-24.38L568.26,36c.22-8.32-2.75-16.16-8.94-21.55a27,27,0,0,0-17.9-6.41ZM484.74,132.47l1.34-54.2L464.81,59.82l62.53-9.48-1.92,76-40.68,6.18Z"/><path class="cls-2" d="M180.15,318.18a13.71,13.71,0,0,0,11.36,3.06L224,316.71a20.65,20.65,0,0,0,16.89-18.91L242,264l-9.37-10.26-21.56,6.39-1,27.36-9.46,1.44.72-19.62-6.8-6.67,42.68-6.5.72-20.44-10.5-9.28-39.63,6A20,20,0,0,0,176.17,239,19.72,19.72,0,0,0,171,251.27l-1.73,46.52c-.16,4.19-1.21,7.58,1.86,10.29C171.11,308.08,177.08,315.46,180.15,318.18Z"/><polygon class="cls-2" points="285.27 217.61 275.02 242.49 270.36 230.76 259.85 221.49 231.59 225.79 242.09 235.08 260.66 271.69 254.61 302.05 263.24 310.36 290.59 306.57 291.55 277.88 318.66 223.4 308.13 214.13 285.27 217.61"/><path class="cls-2" d="M375.12,288.09l3.57,4.33L407.64,288l-2.78-79.25L393,199.21l-24.06,4.91L362,228.91h0l0-15.79L348.43,206l-36.86,6.88,10.53,9.27h0l-11,71.26,7,8.25,28.32-4.31.84-4.77,3.21,4.33,23.62-3.66Zm-33.33-29.55.53,3.36L339,259Zm33.71-5.13.09,1.51-.17-.06.08,1.58-3-2.59Z"/><path class="cls-2" d="M210.05,260.14l19.55-3-1.06,30.24a19.84,19.84,0,0,1-16.23,18.16l-27.41,4.17A13.16,13.16,0,0,1,174,306.79a13,13,0,0,1-4.16-10.45l1.67-44.7a19.79,19.79,0,0,1,16.2-18.1l38.08-5.8-.69,19.64-44.67,6.8,10.07,8.94-1,26.3,19.57-3Zm59-9-11.25-28.29L230.67,227l10.1,8.93,17.84,35.18-.95,27.55,19.58-3,.93-27.55,26.07-52.34-22,3.35ZM390.16,202.6l-24.42,3.72-11,39.51-8.59-36.53-35.57,5.43,10.12,8.91h0l-6.35,66.29,19.59-3,3-27.9-10.14-9,11.27-1.72,5.69,37.08,19.6-3,5.84-28.34-10.15-8.94,12.37-1.89.7,11.85-.16,0L373.18,281l19.59-3Z"/><path class="cls-3" d="M209.1,286.43l-19.57,3,1-26.3-10.07-8.94,44.67-6.8.69-19.64-38.08,5.8a19.79,19.79,0,0,0-16.2,18.1l-1.67,44.7A13,13,0,0,0,174,306.79a13.16,13.16,0,0,0,10.91,2.94l27.41-4.17a19.84,19.84,0,0,0,16.23-18.16l1.06-30.24-19.55,3Z"/><path class="cls-4" d="M225.78,227.74l-.69,19.64-44.67,6.8,10.07,8.94-1,26.3,19.57-3,1-26.29,19.55-3-1.06,30.24a19.84,19.84,0,0,1-16.23,18.16l-27.41,4.17a15.73,15.73,0,0,1-2.36.18,12.66,12.66,0,0,1-8.55-3.12,13,13,0,0,1-4.16-10.45l1.67-44.7a19.79,19.79,0,0,1,16.2-18.1l38.08-5.8m3.06-3.44-3.5.53-38.08,5.81a22.72,22.72,0,0,0-18.7,20.89l-1.67,44.7A15.84,15.84,0,0,0,172.05,309a15.5,15.5,0,0,0,10.49,3.86,18.87,18.87,0,0,0,2.8-.22l27.41-4.17a22.09,22.09,0,0,0,13-7.25,21.86,21.86,0,0,0,5.73-13.71l1.07-30.24.12-3.53-3.5.53-19.55,3-2.41.36-.08,2.43-.86,23.87L192.59,286l.84-22.75,0-1.39-1-.91-5.39-4.79,38.48-5.86,2.4-.37.09-2.43.7-19.64.12-3.54Z"/><polygon class="cls-3" points="269.08 251.11 257.83 222.82 230.68 226.95 240.77 235.88 258.61 271.06 257.67 298.61 277.24 295.63 278.17 268.08 304.24 215.74 282.26 219.09 269.08 251.11"/><path class="cls-4" d="M304.24,215.74l-26.07,52.34-.93,27.55-19.58,3,.95-27.55-17.84-35.18L230.67,227l27.16-4.13,11.25,28.29,13.18-32,22-3.35m5.15-3.76-5.59.86-22,3.35-1.64.25-.63,1.53-10.42,25.31-8.57-21.55-.86-2.17-2.31.35-27.16,4.14L224,225l4.7,4.15,9.68,8.56,17.24,34-.92,26.79-.12,3.54,3.5-.54,19.58-3,2.41-.37.08-2.43.91-26.91,25.78-51.77,2.52-5.07Z"/><polygon class="cls-3" points="390.16 202.6 365.74 206.32 354.78 245.83 346.19 209.3 310.62 214.73 320.74 223.64 320.75 223.63 314.4 289.92 333.99 286.94 336.97 259.04 326.83 250.09 338.1 248.37 343.79 285.45 363.39 282.46 369.23 254.12 359.08 245.18 371.45 243.29 371.99 255.09 373.18 280.97 392.77 277.99 390.16 202.6"/><path class="cls-4" d="M390.16,202.6,392.77,278l-19.59,3-1.73-37.68-12.37,1.89,10.15,8.94-5.84,28.34-19.6,3-5.69-37.08-11.27,1.72L337,259l-3,27.9-19.59,3,6.35-66.29h0l-10.12-8.91,35.57-5.43,8.59,36.53,11-39.51,24.42-3.72m2.82-3.39-3.26.49-24.42,3.72-1.88.29-.51,1.83L355,234l-6-25.37-.62-2.64-2.68.41-35.57,5.42-6.22,1,4.72,4.16,9,7.93-6.2,64.78-.36,3.75,3.73-.57,19.58-3,2.24-.34.24-2.25,1.72-16.08,2.26,14.72.44,2.9,2.9-.44,19.6-3,2-.31.42-2,3.32-16.16.65,14.21.15,3.26,3.23-.49,19.6-3,2.58-.39-.09-2.61L393.1,202.5l-.12-3.29Zm-27.24,47.92,3-.45.19,3.24-3.16-2.79Zm-32.26,4.92,2.16-.33.4,2.58-2.56-2.25Z"/><path class="cls-5" d="M277.24,295.63l.93-27.55,7.25-14.54Q269,256.91,253.48,261l5.13,10.11-.95,27.55Z"/><path class="cls-5" d="M184.9,309.73l27.41-4.17a19.84,19.84,0,0,0,16.23-18.16l.69-19.55q-10.11,3.13-19.69,6.55l-.44,12-19.57,3,.27-7.42q-10.28,4.25-19.77,8.84l-.2,5.5A13,13,0,0,0,174,306.79,13.16,13.16,0,0,0,184.9,309.73Z"/><path class="cls-5" d="M334,286.94l3-27.9-10.14-9,11.27-1.72,5.69,37.08,19.6-3,5.84-28.34-10.15-8.94,12.37-1.89.54,11.8L373.18,281l19.59-3-1.32-38.34q-18.22,1.17-35.8,3.06l-.87,3.12-.69-3q-18.21,2-35.63,4.72l-4.06,42.33Z"/></g></g></svg>